<svg width="23" height="22" viewBox="0 0 23 22" fill="none" xmlns="http://www.w3.org/2000/svg">
<g clip-path="url(#clip0_342_1655)">
<path d="M18.6875 0C19.8754 0 20.8912 0.403429 21.7347 1.21029C22.5782 2.01714 23 2.98872 23 4.125V17.875C23 19.0113 22.5782 19.9829 21.7347 20.7897C20.8912 21.5966 19.8754 22 18.6875 22H15.8724V13.4779H18.8522L19.3014 10.1549H15.8724V8.03516C15.8724 7.50043 15.9897 7.09939 16.2243 6.83203C16.4589 6.56467 16.9156 6.43099 17.5944 6.43099L19.4212 6.41667V3.45182C18.7923 3.36589 17.9039 3.32292 16.7559 3.32292C15.3982 3.32292 14.3126 3.70486 13.499 4.46875C12.6854 5.23264 12.2786 6.31163 12.2786 7.70573V10.1549H9.28385V13.4779H12.2786V22H4.3125C3.12457 22 2.10883 21.5966 1.2653 20.7897C0.421766 19.9829 0 19.0113 0 17.875V4.125C0 2.98872 0.421766 2.01714 1.2653 1.21029C2.10883 0.403429 3.12457 0 4.3125 0H18.6875Z" fill="#880935"/>
</g>
<defs>
<clipPath id="clip0_342_1655">
<rect width="23" height="22" fill="white"/>
</clipPath>
</defs>
</svg>
