<svg width="26" height="25" viewBox="0 0 26 25" fill="none" xmlns="http://www.w3.org/2000/svg">
<path fill-rule="evenodd" clip-rule="evenodd" d="M8.08774 1.11074C9.35849 1.05449 9.76365 1.04199 13.0007 1.04199C16.2377 1.04199 16.6428 1.05553 17.9125 1.11074C19.1822 1.16595 20.0488 1.36074 20.8072 1.64303C21.6012 1.93158 22.3217 2.38262 22.9175 2.96595C23.5242 3.53783 23.9922 4.22949 24.2912 4.99408C24.5858 5.72324 24.7873 6.55658 24.8458 7.77533C24.9043 8.99929 24.9173 9.38887 24.9173 12.5003C24.9173 15.6128 24.9032 16.0024 24.8458 17.2243C24.7884 18.443 24.5858 19.2764 24.2912 20.0055C23.9921 20.7702 23.5234 21.463 22.9175 22.0357C22.3217 22.6191 21.6012 23.0691 20.8072 23.3566C20.0488 23.6399 19.1822 23.8337 17.9147 23.8899C16.6428 23.9462 16.2377 23.9587 13.0007 23.9587C9.76365 23.9587 9.35849 23.9451 8.08774 23.8899C6.82024 23.8347 5.95357 23.6399 5.19524 23.3566C4.39998 23.069 3.67946 22.6183 3.08382 22.0357C2.47756 21.4635 2.00841 20.771 1.70907 20.0066C1.41548 19.2774 1.21398 18.4441 1.15548 17.2253C1.09698 16.0014 1.08398 15.6118 1.08398 12.5003C1.08398 9.38783 1.09807 8.99824 1.15548 7.77741C1.2129 6.55658 1.41548 5.72324 1.70907 4.99408C2.00885 4.22958 2.47836 3.53711 3.0849 2.96491C3.6797 2.3821 4.3995 1.931 5.19415 1.64303C5.95249 1.36074 6.81915 1.16699 8.08665 1.11074H8.08774ZM17.8161 3.17324C16.5594 3.11803 16.1824 3.10658 13.0007 3.10658C9.8189 3.10658 9.4419 3.11803 8.18524 3.17324C7.02282 3.22428 6.39232 3.41074 5.97199 3.56803C5.41623 3.77637 5.01865 4.02324 4.60157 4.42428C4.2062 4.79413 3.90193 5.24437 3.71107 5.74199C3.54748 6.14616 3.35357 6.75241 3.30048 7.87012C3.24307 9.07845 3.23115 9.44095 3.23115 12.5003C3.23115 15.5597 3.24307 15.9222 3.30048 17.1305C3.35357 18.2482 3.54748 18.8545 3.71107 19.2587C3.90173 19.7555 4.20615 20.2066 4.60157 20.5764C4.98615 20.9566 5.45524 21.2493 5.97199 21.4326C6.39232 21.5899 7.02282 21.7764 8.18524 21.8274C9.4419 21.8826 9.81782 21.8941 13.0007 21.8941C16.1835 21.8941 16.5594 21.8826 17.8161 21.8274C18.9785 21.7764 19.609 21.5899 20.0293 21.4326C20.5851 21.2243 20.9827 20.9774 21.3997 20.5764C21.7952 20.2066 22.0996 19.7555 22.2902 19.2587C22.4538 18.8545 22.6477 18.2482 22.7008 17.1305C22.7582 15.9222 22.7702 15.5597 22.7702 12.5003C22.7702 9.44095 22.7582 9.07845 22.7008 7.87012C22.6477 6.75241 22.4538 6.14616 22.2902 5.74199C22.0736 5.20762 21.8168 4.82533 21.3997 4.42428C21.0151 4.04415 20.5468 3.75159 20.0293 3.56803C19.609 3.41074 18.9785 3.22428 17.8161 3.17324ZM11.4786 16.0326C12.3286 16.3729 13.2751 16.4188 14.1565 16.1625C15.0378 15.9063 15.7993 15.3638 16.3109 14.6277C16.8225 13.8915 17.0524 13.0075 16.9614 12.1265C16.8704 11.2455 16.4641 10.4222 15.8119 9.7972C15.3962 9.3977 14.8935 9.0918 14.34 8.90152C13.7866 8.71125 13.1961 8.64133 12.6112 8.6968C12.0263 8.75228 11.4614 8.93176 10.9573 9.22234C10.4531 9.51291 10.0223 9.90735 9.69573 10.3773C9.36917 10.8472 9.15502 11.3808 9.06871 11.9399C8.9824 12.4989 9.02607 13.0694 9.19657 13.6102C9.36707 14.1511 9.66017 14.6489 10.0548 15.0677C10.4494 15.4866 10.9356 15.8161 11.4786 16.0326ZM8.66949 8.33574C9.23826 7.78884 9.9135 7.35502 10.6566 7.05904C11.3998 6.76306 12.1963 6.61072 13.0007 6.61072C13.805 6.61072 14.6015 6.76306 15.3447 7.05904C16.0878 7.35502 16.763 7.78884 17.3318 8.33574C17.9006 8.88264 18.3518 9.53191 18.6596 10.2465C18.9674 10.961 19.1258 11.7269 19.1258 12.5003C19.1258 13.2738 18.9674 14.0396 18.6596 14.7542C18.3518 15.4687 17.9006 16.118 17.3318 16.6649C16.1831 17.7694 14.6252 18.3899 13.0007 18.3899C11.3762 18.3899 9.81818 17.7694 8.66949 16.6649C7.52079 15.5604 6.87546 14.0624 6.87546 12.5003C6.87546 10.9383 7.52079 9.44026 8.66949 8.33574ZM20.4843 7.48783C20.6253 7.35998 20.7381 7.20624 20.8162 7.03572C20.8942 6.86519 20.9359 6.68134 20.9387 6.49505C20.9415 6.30875 20.9054 6.12381 20.8326 5.95117C20.7598 5.77853 20.6516 5.62169 20.5146 5.48995C20.3776 5.35821 20.2145 5.25424 20.0349 5.1842C19.8554 5.11416 19.6631 5.07947 19.4693 5.08218C19.2756 5.0849 19.0844 5.12497 18.907 5.20001C18.7297 5.27505 18.5698 5.38355 18.4368 5.51908C18.1782 5.78265 18.0367 6.13274 18.0422 6.49505C18.0477 6.85735 18.1998 7.20333 18.4662 7.45954C18.7327 7.71575 19.0925 7.86202 19.4693 7.8673C19.8461 7.87259 20.2102 7.73646 20.4843 7.48783Z" fill="#880935"/>
</svg>
