<svg width="23" height="22" viewBox="0 0 23 22" fill="none" xmlns="http://www.w3.org/2000/svg">
<g clip-path="url(#clip0_342_1654)">
<path d="M18.6875 0C19.8754 0 20.8912 0.403429 21.7347 1.21029C22.5782 2.01714 23 2.98872 23 4.125V17.875C23 19.0113 22.5782 19.9829 21.7347 20.7897C20.8912 21.5966 19.8754 22 18.6875 22H7.83138C8.6799 20.8351 9.21897 19.8325 9.44857 18.9922C9.53841 18.6675 9.80295 17.6697 10.2422 15.9987C10.4518 16.3711 10.8187 16.691 11.3428 16.9583C11.8669 17.2257 12.4284 17.3594 13.0273 17.3594C14.8342 17.3594 16.3091 16.6552 17.4521 15.2467C18.5952 13.8383 19.1667 12.0551 19.1667 9.89714C19.1667 9.09505 18.992 8.31923 18.6426 7.56966C18.2932 6.8201 17.8115 6.15647 17.1976 5.57878C16.5837 5.00109 15.8225 4.53798 14.9141 4.18945C14.0056 3.84093 13.0224 3.66667 11.9642 3.66667C10.926 3.66667 9.95519 3.80273 9.05176 4.07487C8.14833 4.34701 7.38466 4.71224 6.76074 5.17057C6.13683 5.62891 5.60026 6.15169 5.15104 6.73893C4.70182 7.32617 4.3699 7.93728 4.15527 8.57227C3.94065 9.20725 3.83333 9.83984 3.83333 10.4701C3.83333 11.444 4.03049 12.3034 4.4248 13.0482C4.81912 13.793 5.40061 14.3181 6.16927 14.6237C6.29905 14.6714 6.41634 14.6714 6.52116 14.6237C6.62598 14.576 6.69835 14.4852 6.73828 14.3516C6.83811 13.9314 6.91298 13.6402 6.96289 13.4779C7.02279 13.2582 6.96788 13.0577 6.79818 12.8763C6.29905 12.2843 6.04948 11.5681 6.04948 10.7279C6.04948 9.29557 6.56608 8.07096 7.59928 7.05404C8.63249 6.03711 9.98264 5.52865 11.6497 5.52865C13.1372 5.52865 14.2976 5.91536 15.1312 6.6888C15.9647 7.46224 16.3815 8.46484 16.3815 9.69662C16.3815 11.3008 16.0446 12.6662 15.3708 13.793C14.6969 14.9197 13.8309 15.4831 12.7728 15.4831C12.1738 15.4831 11.6897 15.2754 11.3203 14.86C10.951 14.4447 10.8362 13.9505 10.9759 13.3776C11.0558 13.053 11.188 12.6113 11.3727 12.0527C11.5574 11.4941 11.7046 11.0072 11.8145 10.5918C11.9243 10.1764 11.9792 9.82075 11.9792 9.52474C11.9792 9.05686 11.8469 8.66775 11.5824 8.35742C11.3178 8.04709 10.941 7.89193 10.4518 7.89193C9.84288 7.89193 9.32628 8.16168 8.90202 8.70117C8.47776 9.24067 8.26562 9.90668 8.26562 10.6992C8.26562 11.3867 8.38542 11.9644 8.625 12.4323L7.15755 18.362C6.91797 19.3168 6.88303 20.5295 7.05273 22H4.3125C3.12457 22 2.10883 21.5966 1.2653 20.7897C0.421766 19.9829 0 19.0113 0 17.875V4.125C0 2.98872 0.421766 2.01714 1.2653 1.21029C2.10883 0.403429 3.12457 0 4.3125 0H18.6875Z" fill="#880935"/>
</g>
<defs>
<clipPath id="clip0_342_1654">
<rect width="23" height="22" fill="white"/>
</clipPath>
</defs>
</svg>
